<svg width="1300" height="457" viewBox="0 0 1300 457" fill="none" xmlns="http://www.w3.org/2000/svg">
<rect width="457" height="457" rx="30" fill="#81B6A4"/>
<circle cx="228.5" cy="228.5" r="203.5" fill="#42826B"/>
<path d="M349.119 116.658C348.789 116.315 348.355 116.086 347.88 116.007C347.406 115.928 346.918 116.003 346.491 116.219L119.198 231.175C118.871 231.333 118.59 231.567 118.378 231.858C118.167 232.148 118.033 232.485 117.987 232.839L115.632 252.209C115.595 252.513 115.625 252.821 115.718 253.113C115.812 253.405 115.968 253.674 116.175 253.903C116.383 254.131 116.638 254.315 116.923 254.44C117.208 254.566 117.517 254.631 117.83 254.631C118.11 254.63 118.387 254.577 118.647 254.477L312.191 179.441C312.645 179.265 313.027 178.949 313.281 178.541L349.404 119.251C349.65 118.847 349.756 118.376 349.705 117.908C349.654 117.44 349.448 117.001 349.119 116.658ZM309.86 175.687L120.494 249.118L122.274 234.491L341.617 123.545L309.86 175.687Z" fill="white"/>
<path d="M297.285 196.591L115.553 263.028C115.172 263.167 114.837 263.407 114.586 263.72C114.335 264.034 114.177 264.409 114.13 264.805L112.042 281.978C112.004 282.282 112.032 282.59 112.126 282.883C112.219 283.175 112.375 283.444 112.582 283.673C112.79 283.902 113.045 284.086 113.331 284.211C113.617 284.336 113.926 284.401 114.239 284.4C114.402 284.4 114.565 284.382 114.724 284.347L271.328 249.846C271.636 249.778 271.925 249.647 272.177 249.461C272.428 249.275 272.637 249.039 272.787 248.768L300.034 199.617C300.248 199.229 300.337 198.786 300.287 198.347C300.237 197.909 300.052 197.495 299.756 197.162C299.46 196.83 299.067 196.593 298.629 196.485C298.192 196.376 297.732 196.401 297.309 196.555L297.285 196.591ZM269.373 245.849L116.794 279.461L118.357 266.623L293.289 202.666L269.373 245.849Z" fill="white"/>
<path d="M254.744 263.774L112.393 291.761C111.935 291.849 111.518 292.078 111.201 292.413C110.884 292.748 110.685 293.173 110.631 293.626L108.3 312.801C108.261 313.105 108.289 313.413 108.381 313.705C108.474 313.998 108.629 314.267 108.836 314.496C109.044 314.726 109.298 314.909 109.584 315.034C109.869 315.16 110.179 315.224 110.491 315.223L226.215 315.022C226.596 315.023 226.97 314.927 227.301 314.743C227.633 314.559 227.909 314.294 228.104 313.974L257.069 267.013C257.292 266.654 257.403 266.239 257.389 265.819C257.374 265.399 257.235 264.992 256.987 264.648C256.74 264.304 256.395 264.038 255.996 263.883C255.596 263.728 255.159 263.69 254.738 263.774H254.744ZM224.967 310.699L112.986 310.889L114.802 295.693L250.657 268.985L224.967 310.699Z" fill="white"/>
<path d="M607.296 196.092C599.288 196.092 592.112 194.792 585.768 192.192C579.424 189.592 574.328 185.744 570.48 180.648C566.736 175.552 564.76 169.416 564.552 162.24H592.944C593.36 166.296 594.764 169.416 597.156 171.6C599.548 173.68 602.668 174.72 606.516 174.72C610.468 174.72 613.588 173.836 615.876 172.068C618.164 170.196 619.308 167.648 619.308 164.424C619.308 161.72 618.372 159.484 616.5 157.716C614.732 155.948 612.496 154.492 609.792 153.348C607.192 152.204 603.448 150.904 598.56 149.448C591.488 147.264 585.716 145.08 581.244 142.896C576.772 140.712 572.924 137.488 569.7 133.224C566.476 128.96 564.864 123.396 564.864 116.532C564.864 106.34 568.556 98.384 575.94 92.664C583.324 86.84 592.944 83.928 604.8 83.928C616.864 83.928 626.588 86.84 633.972 92.664C641.356 98.384 645.308 106.392 645.828 116.688H616.968C616.76 113.152 615.46 110.396 613.068 108.42C610.676 106.34 607.608 105.3 603.864 105.3C600.64 105.3 598.04 106.184 596.064 107.952C594.088 109.616 593.1 112.06 593.1 115.284C593.1 118.82 594.764 121.576 598.092 123.552C601.42 125.528 606.62 127.66 613.692 129.948C620.764 132.34 626.484 134.628 630.852 136.812C635.324 138.996 639.172 142.168 642.396 146.328C645.62 150.488 647.232 155.844 647.232 162.396C647.232 168.636 645.62 174.304 642.396 179.4C639.276 184.496 634.7 188.552 628.668 191.568C622.636 194.584 615.512 196.092 607.296 196.092ZM788.605 107.952L765.049 195H735.565L721.837 138.528L707.641 195H678.313L654.601 107.952H681.277L693.601 170.196L708.265 107.952H736.501L751.321 169.884L763.489 107.952H788.605ZM812.193 98.904C807.513 98.904 803.665 97.552 800.649 94.848C797.737 92.04 796.281 88.608 796.281 84.552C796.281 80.392 797.737 76.96 800.649 74.256C803.665 71.448 807.513 70.044 812.193 70.044C816.769 70.044 820.513 71.448 823.425 74.256C826.441 76.96 827.949 80.392 827.949 84.552C827.949 88.608 826.441 92.04 823.425 94.848C820.513 97.552 816.769 98.904 812.193 98.904ZM825.453 107.952V195H798.777V107.952H825.453ZM888.465 130.104H874.113V195H847.437V130.104H837.765V107.952H847.437V105.456C847.437 94.744 850.505 86.632 856.641 81.12C862.777 75.504 871.773 72.696 883.629 72.696C885.605 72.696 887.061 72.748 887.997 72.852V95.472C882.901 95.16 879.313 95.888 877.233 97.656C875.153 99.424 874.113 102.596 874.113 107.172V107.952H888.465V130.104ZM949.516 172.38V195H935.944C926.272 195 918.732 192.66 913.324 187.98C907.916 183.196 905.212 175.448 905.212 164.736V130.104H894.604V107.952H905.212V86.736H931.888V107.952H949.36V130.104H931.888V165.048C931.888 167.648 932.512 169.52 933.76 170.664C935.008 171.808 937.088 172.38 940 172.38H949.516Z" fill="white"/>
<path d="M633.972 315.84C640.316 317.192 645.412 320.364 649.26 325.356C653.108 330.244 655.032 335.86 655.032 342.204C655.032 351.356 651.808 358.636 645.36 364.044C639.016 369.348 630.124 372 618.684 372H567.672V262.488H616.968C628.096 262.488 636.78 265.036 643.02 270.132C649.364 275.228 652.536 282.144 652.536 290.88C652.536 297.328 650.82 302.684 647.388 306.948C644.06 311.212 639.588 314.176 633.972 315.84ZM594.348 306.792H611.82C616.188 306.792 619.516 305.856 621.804 303.984C624.196 302.008 625.392 299.148 625.392 295.404C625.392 291.66 624.196 288.8 621.804 286.824C619.516 284.848 616.188 283.86 611.82 283.86H594.348V306.792ZM614.004 350.472C618.476 350.472 621.908 349.484 624.3 347.508C626.796 345.428 628.044 342.464 628.044 338.616C628.044 334.768 626.744 331.752 624.144 329.568C621.648 327.384 618.164 326.292 613.692 326.292H594.348V350.472H614.004ZM710.128 373.248C701.6 373.248 693.904 371.428 687.04 367.788C680.28 364.148 674.924 358.948 670.972 352.188C667.124 345.428 665.2 337.524 665.2 328.476C665.2 319.532 667.176 311.68 671.128 304.92C675.08 298.056 680.488 292.804 687.352 289.164C694.216 285.524 701.912 283.704 710.44 283.704C718.968 283.704 726.664 285.524 733.528 289.164C740.392 292.804 745.8 298.056 749.752 304.92C753.704 311.68 755.68 319.532 755.68 328.476C755.68 337.42 753.652 345.324 749.596 352.188C745.644 358.948 740.184 364.148 733.216 367.788C726.352 371.428 718.656 373.248 710.128 373.248ZM710.128 350.16C715.224 350.16 719.54 348.288 723.076 344.544C726.716 340.8 728.536 335.444 728.536 328.476C728.536 321.508 726.768 316.152 723.232 312.408C719.8 308.664 715.536 306.792 710.44 306.792C705.24 306.792 700.924 308.664 697.492 312.408C694.06 316.048 692.344 321.404 692.344 328.476C692.344 335.444 694.008 340.8 697.336 344.544C700.768 348.288 705.032 350.16 710.128 350.16ZM809.456 373.248C800.928 373.248 793.232 371.428 786.368 367.788C779.608 364.148 774.252 358.948 770.3 352.188C766.452 345.428 764.528 337.524 764.528 328.476C764.528 319.532 766.504 311.68 770.456 304.92C774.408 298.056 779.816 292.804 786.68 289.164C793.544 285.524 801.24 283.704 809.768 283.704C818.296 283.704 825.992 285.524 832.856 289.164C839.72 292.804 845.128 298.056 849.08 304.92C853.032 311.68 855.008 319.532 855.008 328.476C855.008 337.42 852.98 345.324 848.924 352.188C844.972 358.948 839.512 364.148 832.544 367.788C825.68 371.428 817.984 373.248 809.456 373.248ZM809.456 350.16C814.552 350.16 818.868 348.288 822.404 344.544C826.044 340.8 827.864 335.444 827.864 328.476C827.864 321.508 826.096 316.152 822.56 312.408C819.128 308.664 814.864 306.792 809.768 306.792C804.568 306.792 800.252 308.664 796.82 312.408C793.388 316.048 791.672 321.404 791.672 328.476C791.672 335.444 793.336 340.8 796.664 344.544C800.096 348.288 804.36 350.16 809.456 350.16ZM922.356 372L895.836 335.496V372H869.16V256.56H895.836V320.364L922.2 284.952H955.116L918.924 328.632L955.428 372H922.356ZM979.01 275.904C974.33 275.904 970.482 274.552 967.466 271.848C964.554 269.04 963.098 265.608 963.098 261.552C963.098 257.392 964.554 253.96 967.466 251.256C970.482 248.448 974.33 247.044 979.01 247.044C983.586 247.044 987.33 248.448 990.242 251.256C993.258 253.96 994.766 257.392 994.766 261.552C994.766 265.608 993.258 269.04 990.242 271.848C987.33 274.552 983.586 275.904 979.01 275.904ZM992.27 284.952V372H965.594V284.952H992.27ZM1064.64 284.016C1074.83 284.016 1082.95 287.344 1088.98 294C1095.11 300.552 1098.18 309.6 1098.18 321.144V372H1071.66V324.732C1071.66 318.908 1070.15 314.384 1067.14 311.16C1064.12 307.936 1060.07 306.324 1054.97 306.324C1049.87 306.324 1045.82 307.936 1042.8 311.16C1039.79 314.384 1038.28 318.908 1038.28 324.732V372H1011.6V284.952H1038.28V296.496C1040.98 292.648 1044.62 289.632 1049.2 287.448C1053.77 285.16 1058.92 284.016 1064.64 284.016ZM1149.79 283.704C1155.93 283.704 1161.28 284.952 1165.86 287.448C1170.54 289.944 1174.13 293.22 1176.62 297.276V284.952H1203.3V371.844C1203.3 379.852 1201.69 387.08 1198.46 393.528C1195.34 400.08 1190.51 405.28 1183.95 409.128C1177.51 412.976 1169.45 414.9 1159.77 414.9C1146.88 414.9 1136.43 411.832 1128.42 405.696C1120.41 399.664 1115.83 391.448 1114.69 381.048H1141.05C1141.89 384.376 1143.86 386.976 1146.98 388.848C1150.1 390.824 1153.95 391.812 1158.53 391.812C1164.04 391.812 1168.41 390.2 1171.63 386.976C1174.96 383.856 1176.62 378.812 1176.62 371.844V359.52C1174.02 363.576 1170.43 366.904 1165.86 369.504C1161.28 372 1155.93 373.248 1149.79 373.248C1142.61 373.248 1136.11 371.428 1130.29 367.788C1124.47 364.044 1119.84 358.792 1116.41 352.032C1113.08 345.168 1111.41 337.264 1111.41 328.32C1111.41 319.376 1113.08 311.524 1116.41 304.764C1119.84 298.004 1124.47 292.804 1130.29 289.164C1136.11 285.524 1142.61 283.704 1149.79 283.704ZM1176.62 328.476C1176.62 321.82 1174.75 316.568 1171.01 312.72C1167.37 308.872 1162.89 306.948 1157.59 306.948C1152.29 306.948 1147.76 308.872 1144.02 312.72C1140.38 316.464 1138.56 321.664 1138.56 328.32C1138.56 334.976 1140.38 340.28 1144.02 344.232C1147.76 348.08 1152.29 350.004 1157.59 350.004C1162.89 350.004 1167.37 348.08 1171.01 344.232C1174.75 340.384 1176.62 335.132 1176.62 328.476ZM1258.01 373.248C1250.42 373.248 1243.66 371.948 1237.73 369.348C1231.8 366.748 1227.12 363.212 1223.69 358.74C1220.26 354.164 1218.33 349.068 1217.92 343.452H1244.28C1244.59 346.468 1246 348.912 1248.49 350.784C1250.99 352.656 1254.06 353.592 1257.7 353.592C1261.03 353.592 1263.57 352.968 1265.34 351.72C1267.21 350.368 1268.15 348.652 1268.15 346.572C1268.15 344.076 1266.85 342.256 1264.25 341.112C1261.65 339.864 1257.44 338.512 1251.61 337.056C1245.37 335.6 1240.17 334.092 1236.01 332.532C1231.85 330.868 1228.27 328.32 1225.25 324.888C1222.23 321.352 1220.73 316.62 1220.73 310.692C1220.73 305.7 1222.08 301.176 1224.78 297.12C1227.59 292.96 1231.65 289.684 1236.95 287.292C1242.36 284.9 1248.75 283.704 1256.14 283.704C1267.06 283.704 1275.64 286.408 1281.88 291.816C1288.22 297.224 1291.86 304.4 1292.8 313.344H1268.15C1267.73 310.328 1266.38 307.936 1264.09 306.168C1261.91 304.4 1259 303.516 1255.36 303.516C1252.24 303.516 1249.85 304.14 1248.18 305.388C1246.52 306.532 1245.69 308.144 1245.69 310.224C1245.69 312.72 1246.99 314.592 1249.59 315.84C1252.29 317.088 1256.45 318.336 1262.07 319.584C1268.51 321.248 1273.77 322.912 1277.82 324.576C1281.88 326.136 1285.41 328.736 1288.43 332.376C1291.55 335.912 1293.16 340.696 1293.27 346.728C1293.27 351.824 1291.81 356.4 1288.9 360.456C1286.09 364.408 1281.98 367.528 1276.57 369.816C1271.27 372.104 1265.08 373.248 1258.01 373.248Z" fill="white"/>
</svg>
