<svg width="1025" height="457" viewBox="0 0 1025 457" fill="none" xmlns="http://www.w3.org/2000/svg">
<rect width="457" height="457" rx="30" fill="#81B6A4"/>
<circle cx="228.5" cy="228.5" r="203.5" fill="#42826B"/>
<path d="M349.119 116.658C348.789 116.315 348.355 116.086 347.88 116.007C347.406 115.928 346.918 116.003 346.491 116.219L119.198 231.175C118.871 231.333 118.59 231.567 118.378 231.858C118.167 232.148 118.033 232.485 117.987 232.839L115.632 252.209C115.595 252.513 115.625 252.821 115.718 253.113C115.812 253.405 115.968 253.674 116.175 253.903C116.383 254.131 116.638 254.315 116.923 254.44C117.208 254.566 117.517 254.631 117.83 254.631C118.11 254.63 118.387 254.577 118.647 254.477L312.191 179.441C312.645 179.265 313.027 178.949 313.281 178.541L349.404 119.251C349.65 118.847 349.756 118.376 349.705 117.908C349.654 117.44 349.448 117.001 349.119 116.658ZM309.86 175.687L120.494 249.118L122.274 234.491L341.617 123.545L309.86 175.687Z" fill="#FCFCFC"/>
<path d="M297.285 196.591L115.553 263.028C115.172 263.167 114.837 263.407 114.586 263.72C114.335 264.034 114.177 264.409 114.13 264.805L112.042 281.978C112.004 282.282 112.032 282.59 112.126 282.883C112.219 283.175 112.375 283.444 112.582 283.673C112.79 283.902 113.045 284.086 113.331 284.211C113.617 284.336 113.926 284.401 114.239 284.4C114.402 284.4 114.565 284.382 114.724 284.347L271.328 249.846C271.636 249.778 271.925 249.647 272.177 249.461C272.428 249.275 272.637 249.039 272.787 248.768L300.034 199.617C300.248 199.229 300.337 198.786 300.287 198.347C300.237 197.909 300.052 197.495 299.756 197.162C299.46 196.83 299.067 196.593 298.629 196.485C298.192 196.376 297.732 196.401 297.309 196.555L297.285 196.591ZM269.373 245.849L116.794 279.461L118.357 266.623L293.289 202.666L269.373 245.849Z" fill="#FCFCFC"/>
<path d="M254.744 263.774L112.393 291.761C111.935 291.849 111.518 292.078 111.201 292.413C110.884 292.748 110.685 293.173 110.631 293.626L108.3 312.801C108.261 313.105 108.289 313.413 108.381 313.705C108.474 313.998 108.629 314.267 108.836 314.496C109.044 314.726 109.298 314.909 109.584 315.034C109.869 315.16 110.179 315.224 110.491 315.223L226.215 315.022C226.596 315.023 226.97 314.927 227.301 314.743C227.633 314.559 227.909 314.294 228.104 313.974L257.069 267.013C257.292 266.654 257.403 266.239 257.389 265.819C257.374 265.399 257.235 264.992 256.987 264.648C256.74 264.304 256.395 264.038 255.996 263.883C255.596 263.728 255.159 263.69 254.738 263.774H254.744ZM224.967 310.699L112.986 310.889L114.802 295.693L250.657 268.985L224.967 310.699Z" fill="#FCFCFC"/>
<path d="M593.448 203.896C586.877 203.896 580.989 202.829 575.784 200.696C570.579 198.563 566.397 195.405 563.24 191.224C560.168 187.043 558.547 182.008 558.376 176.12H581.672C582.013 179.448 583.165 182.008 585.128 183.8C587.091 185.507 589.651 186.36 592.808 186.36C596.051 186.36 598.611 185.635 600.488 184.184C602.365 182.648 603.304 180.557 603.304 177.912C603.304 175.693 602.536 173.859 601 172.408C599.549 170.957 597.715 169.763 595.496 168.824C593.363 167.885 590.291 166.819 586.28 165.624C580.477 163.832 575.741 162.04 572.072 160.248C568.403 158.456 565.245 155.811 562.6 152.312C559.955 148.813 558.632 144.248 558.632 138.616C558.632 130.253 561.661 123.725 567.72 119.032C573.779 114.253 581.672 111.864 591.4 111.864C601.299 111.864 609.277 114.253 615.336 119.032C621.395 123.725 624.637 130.296 625.064 138.744H601.384C601.213 135.843 600.147 133.581 598.184 131.96C596.221 130.253 593.704 129.4 590.632 129.4C587.987 129.4 585.853 130.125 584.232 131.576C582.611 132.941 581.8 134.947 581.8 137.592C581.8 140.493 583.165 142.755 585.896 144.376C588.627 145.997 592.893 147.747 598.696 149.624C604.499 151.587 609.192 153.464 612.776 155.256C616.445 157.048 619.603 159.651 622.248 163.064C624.893 166.477 626.216 170.872 626.216 176.248C626.216 181.368 624.893 186.019 622.248 190.2C619.688 194.381 615.933 197.709 610.984 200.184C606.035 202.659 600.189 203.896 593.448 203.896ZM742.214 131.576L722.886 203H698.694L687.43 156.664L675.782 203H651.718L632.262 131.576H654.15L664.262 182.648L676.294 131.576H699.462L711.622 182.392L721.606 131.576H742.214ZM761.569 124.152C757.729 124.152 754.572 123.043 752.097 120.824C749.708 118.52 748.513 115.704 748.513 112.376C748.513 108.963 749.708 106.147 752.097 103.928C754.572 101.624 757.729 100.472 761.569 100.472C765.324 100.472 768.396 101.624 770.785 103.928C773.26 106.147 774.497 108.963 774.497 112.376C774.497 115.704 773.26 118.52 770.785 120.824C768.396 123.043 765.324 124.152 761.569 124.152ZM772.449 131.576V203H750.561V131.576H772.449ZM824.151 149.752H812.375V203H790.487V149.752H782.551V131.576H790.487V129.528C790.487 120.739 793.004 114.083 798.039 109.56C803.074 104.952 810.455 102.648 820.183 102.648C821.804 102.648 822.999 102.691 823.767 102.776V121.336C819.586 121.08 816.642 121.677 814.935 123.128C813.228 124.579 812.375 127.181 812.375 130.936V131.576H824.151V149.752ZM874.244 184.44V203H863.108C855.172 203 848.985 201.08 844.548 197.24C840.111 193.315 837.892 186.957 837.892 178.168V149.752H829.188V131.576H837.892V114.168H859.78V131.576H874.116V149.752H859.78V178.424C859.78 180.557 860.292 182.093 861.316 183.032C862.34 183.971 864.047 184.44 866.436 184.44H874.244Z" fill="white"/>
<path d="M593.448 345.896C586.877 345.896 580.989 344.829 575.784 342.696C570.579 340.563 566.397 337.405 563.24 333.224C560.168 329.043 558.547 324.008 558.376 318.12H581.672C582.013 321.448 583.165 324.008 585.128 325.8C587.091 327.507 589.651 328.36 592.808 328.36C596.051 328.36 598.611 327.635 600.488 326.184C602.365 324.648 603.304 322.557 603.304 319.912C603.304 317.693 602.536 315.859 601 314.408C599.549 312.957 597.715 311.763 595.496 310.824C593.363 309.885 590.291 308.819 586.28 307.624C580.477 305.832 575.741 304.04 572.072 302.248C568.403 300.456 565.245 297.811 562.6 294.312C559.955 290.813 558.632 286.248 558.632 280.616C558.632 272.253 561.661 265.725 567.72 261.032C573.779 256.253 581.672 253.864 591.4 253.864C601.299 253.864 609.277 256.253 615.336 261.032C621.395 265.725 624.637 272.296 625.064 280.744H601.384C601.213 277.843 600.147 275.581 598.184 273.96C596.221 272.253 593.704 271.4 590.632 271.4C587.987 271.4 585.853 272.125 584.232 273.576C582.611 274.941 581.8 276.947 581.8 279.592C581.8 282.493 583.165 284.755 585.896 286.376C588.627 287.997 592.893 289.747 598.696 291.624C604.499 293.587 609.192 295.464 612.776 297.256C616.445 299.048 619.603 301.651 622.248 305.064C624.893 308.477 626.216 312.872 626.216 318.248C626.216 323.368 624.893 328.019 622.248 332.2C619.688 336.381 615.933 339.709 610.984 342.184C606.035 344.659 600.189 345.896 593.448 345.896ZM683.59 272.808C691.782 272.808 698.353 275.539 703.302 281C708.251 286.376 710.726 293.8 710.726 303.272V345H688.966V306.216C688.966 301.437 687.729 297.725 685.254 295.08C682.779 292.435 679.451 291.112 675.27 291.112C671.089 291.112 667.761 292.435 665.286 295.08C662.811 297.725 661.574 301.437 661.574 306.216V345H639.686V250.28H661.574V283.176C663.793 280.019 666.822 277.501 670.662 275.624C674.502 273.747 678.811 272.808 683.59 272.808ZM796.464 273.576V345H774.576V335.272C772.357 338.429 769.328 340.989 765.488 342.952C761.733 344.829 757.552 345.768 752.944 345.768C747.483 345.768 742.661 344.573 738.48 342.184C734.299 339.709 731.056 336.168 728.752 331.56C726.448 326.952 725.296 321.533 725.296 315.304V273.576H747.056V312.36C747.056 317.139 748.293 320.851 750.768 323.496C753.243 326.141 756.571 327.464 760.752 327.464C765.019 327.464 768.389 326.141 770.864 323.496C773.339 320.851 774.576 317.139 774.576 312.36V273.576H796.464ZM851.994 326.44V345H840.858C832.922 345 826.735 343.08 822.298 339.24C817.861 335.315 815.642 328.957 815.642 320.168V291.752H806.938V273.576H815.642V256.168H837.53V273.576H851.866V291.752H837.53V320.424C837.53 322.557 838.042 324.093 839.066 325.032C840.09 325.971 841.797 326.44 844.186 326.44H851.994ZM903.994 326.44V345H892.858C884.922 345 878.735 343.08 874.298 339.24C869.861 335.315 867.642 328.957 867.642 320.168V291.752H858.938V273.576H867.642V256.168H889.53V273.576H903.866V291.752H889.53V320.424C889.53 322.557 890.042 324.093 891.066 325.032C892.09 325.971 893.797 326.44 896.186 326.44H903.994ZM938.074 250.28V345H916.186V250.28H938.074ZM1021.26 308.136C1021.26 310.184 1021.14 312.317 1020.88 314.536H971.344C971.685 318.973 973.093 322.387 975.568 324.776C978.128 327.08 981.243 328.232 984.912 328.232C990.373 328.232 994.171 325.928 996.304 321.32H1019.6C1018.41 326.013 1016.23 330.237 1013.07 333.992C1010 337.747 1006.12 340.691 1001.42 342.824C996.731 344.957 991.483 346.024 985.68 346.024C978.683 346.024 972.453 344.531 966.992 341.544C961.531 338.557 957.264 334.291 954.192 328.744C951.12 323.197 949.584 316.712 949.584 309.288C949.584 301.864 951.077 295.379 954.064 289.832C957.136 284.285 961.403 280.019 966.864 277.032C972.325 274.045 978.597 272.552 985.68 272.552C992.592 272.552 998.736 274.003 1004.11 276.904C1009.49 279.805 1013.67 283.944 1016.66 289.32C1019.73 294.696 1021.26 300.968 1021.26 308.136ZM998.864 302.376C998.864 298.621 997.584 295.635 995.024 293.416C992.464 291.197 989.264 290.088 985.424 290.088C981.755 290.088 978.64 291.155 976.08 293.288C973.605 295.421 972.069 298.451 971.472 302.376H998.864Z" fill="white"/>
</svg>
