<svg width="1280" height="1280" viewBox="0 0 1280 1280" fill="none" xmlns="http://www.w3.org/2000/svg">
<rect width="1280" height="1280" rx="30" fill="#81B6A4"/>
<circle cx="640" cy="640.001" r="521.434" fill="#42826B"/>
<path d="M991.41 356.632C990.527 355.713 989.36 355.101 988.089 354.889C986.817 354.677 985.509 354.877 984.364 355.457L374.9 663.652C374.024 664.075 373.269 664.704 372.702 665.483C372.135 666.261 371.775 667.165 371.653 668.113L365.338 720.045C365.239 720.86 365.318 721.685 365.569 722.468C365.82 723.25 366.238 723.972 366.794 724.585C367.351 725.198 368.034 725.69 368.799 726.026C369.563 726.363 370.392 726.538 371.231 726.539C371.981 726.534 372.724 726.394 373.423 726.126L892.393 524.955C893.608 524.481 894.634 523.634 895.315 522.542L992.173 363.586C992.835 362.503 993.119 361.239 992.981 359.984C992.844 358.73 992.292 357.553 991.41 356.632ZM886.142 514.889L378.374 711.758L383.147 672.543L971.295 375.097L886.142 514.889Z" fill="#FCFCFC"/>
<path d="M852.422 570.933L365.127 749.052C364.104 749.425 363.206 750.067 362.533 750.908C361.86 751.748 361.437 752.754 361.311 753.815L355.71 799.857C355.609 800.671 355.686 801.498 355.936 802.282C356.186 803.065 356.604 803.788 357.161 804.402C357.718 805.016 358.402 805.507 359.168 805.843C359.934 806.179 360.764 806.352 361.604 806.35C362.041 806.35 362.476 806.303 362.902 806.207L782.822 713.711C783.647 713.529 784.423 713.177 785.097 712.679C785.772 712.181 786.33 711.547 786.735 710.821L859.793 579.046C860.368 578.006 860.605 576.818 860.472 575.643C860.339 574.467 859.842 573.359 859.048 572.466C858.254 571.574 857.2 570.94 856.028 570.649C854.855 570.358 853.62 570.424 852.487 570.838L852.422 570.933ZM777.578 702.994L368.455 793.109L372.643 758.689L841.707 587.223L777.578 702.994Z" fill="#FCFCFC"/>
<path d="M738.354 751.053L356.652 826.085C355.424 826.322 354.305 826.934 353.456 827.833C352.607 828.732 352.072 829.871 351.927 831.086L345.677 882.494C345.573 883.308 345.648 884.134 345.896 884.918C346.144 885.701 346.56 886.424 347.116 887.039C347.672 887.653 348.355 888.144 349.12 888.48C349.885 888.816 350.715 888.989 351.554 888.988L661.855 888.448C662.876 888.45 663.88 888.192 664.768 887.699C665.656 887.207 666.398 886.496 666.92 885.638L744.588 759.737C745.186 758.773 745.484 757.66 745.445 756.534C745.406 755.408 745.032 754.317 744.368 753.395C743.705 752.473 742.781 751.761 741.71 751.345C740.639 750.929 739.467 750.827 738.338 751.053H738.354ZM658.51 876.858L358.243 877.366L363.113 836.627L727.395 765.024L658.51 876.858Z" fill="#FCFCFC"/>
</svg>
