<svg width="1295" height="457" viewBox="0 0 1295 457" fill="none" xmlns="http://www.w3.org/2000/svg">
<rect width="457" height="457" rx="30" fill="#FCFCFC" fill-opacity="0.7"/>
<circle cx="228.5" cy="228.5" r="203.5" fill="#1D1D1D"/>
<path d="M349.119 116.658C348.789 116.315 348.355 116.086 347.88 116.007C347.406 115.928 346.918 116.003 346.491 116.219L119.198 231.175C118.871 231.333 118.59 231.567 118.378 231.858C118.167 232.148 118.033 232.485 117.987 232.839L115.632 252.209C115.595 252.513 115.625 252.821 115.718 253.113C115.812 253.405 115.968 253.674 116.175 253.903C116.383 254.131 116.638 254.315 116.923 254.44C117.208 254.566 117.517 254.631 117.83 254.631C118.11 254.63 118.387 254.577 118.647 254.477L312.191 179.441C312.645 179.265 313.027 178.949 313.281 178.541L349.404 119.251C349.65 118.847 349.756 118.376 349.705 117.908C349.654 117.44 349.448 117.001 349.119 116.658ZM309.86 175.687L120.494 249.118L122.274 234.491L341.617 123.545L309.86 175.687Z" fill="#FCFCFC"/>
<path d="M297.285 196.591L115.553 263.028C115.172 263.167 114.837 263.407 114.586 263.72C114.335 264.034 114.177 264.409 114.13 264.805L112.042 281.978C112.004 282.282 112.032 282.59 112.126 282.883C112.219 283.175 112.375 283.444 112.582 283.673C112.79 283.902 113.045 284.086 113.331 284.211C113.617 284.336 113.926 284.401 114.239 284.4C114.402 284.4 114.565 284.382 114.724 284.347L271.328 249.846C271.636 249.778 271.925 249.647 272.177 249.461C272.428 249.275 272.637 249.039 272.787 248.768L300.034 199.617C300.248 199.229 300.337 198.786 300.287 198.347C300.237 197.909 300.052 197.495 299.756 197.162C299.46 196.83 299.067 196.593 298.629 196.485C298.192 196.376 297.732 196.401 297.309 196.555L297.285 196.591ZM269.373 245.849L116.794 279.461L118.357 266.623L293.289 202.666L269.373 245.849Z" fill="#FCFCFC"/>
<path d="M254.744 263.774L112.393 291.761C111.935 291.849 111.518 292.078 111.201 292.413C110.884 292.748 110.685 293.173 110.631 293.626L108.3 312.801C108.261 313.105 108.289 313.413 108.381 313.705C108.474 313.998 108.629 314.267 108.836 314.496C109.044 314.726 109.298 314.909 109.584 315.034C109.869 315.16 110.179 315.224 110.491 315.223L226.215 315.022C226.596 315.023 226.97 314.927 227.301 314.743C227.633 314.559 227.909 314.294 228.104 313.974L257.069 267.013C257.292 266.654 257.403 266.239 257.389 265.819C257.374 265.399 257.235 264.992 256.987 264.648C256.74 264.304 256.395 264.038 255.996 263.883C255.596 263.728 255.159 263.69 254.738 263.774H254.744ZM224.967 310.699L112.986 310.889L114.802 295.693L250.657 268.985L224.967 310.699Z" fill="#FCFCFC"/>
<path d="M602.296 196.092C594.288 196.092 587.112 194.792 580.768 192.192C574.424 189.592 569.328 185.744 565.48 180.648C561.736 175.552 559.76 169.416 559.552 162.24H587.944C588.36 166.296 589.764 169.416 592.156 171.6C594.548 173.68 597.668 174.72 601.516 174.72C605.468 174.72 608.588 173.836 610.876 172.068C613.164 170.196 614.308 167.648 614.308 164.424C614.308 161.72 613.372 159.484 611.5 157.716C609.732 155.948 607.496 154.492 604.792 153.348C602.192 152.204 598.448 150.904 593.56 149.448C586.488 147.264 580.716 145.08 576.244 142.896C571.772 140.712 567.924 137.488 564.7 133.224C561.476 128.96 559.864 123.396 559.864 116.532C559.864 106.34 563.556 98.384 570.94 92.664C578.324 86.84 587.944 83.928 599.8 83.928C611.864 83.928 621.588 86.84 628.972 92.664C636.356 98.384 640.308 106.392 640.828 116.688H611.968C611.76 113.152 610.46 110.396 608.068 108.42C605.676 106.34 602.608 105.3 598.864 105.3C595.64 105.3 593.04 106.184 591.064 107.952C589.088 109.616 588.1 112.06 588.1 115.284C588.1 118.82 589.764 121.576 593.092 123.552C596.42 125.528 601.62 127.66 608.692 129.948C615.764 132.34 621.484 134.628 625.852 136.812C630.324 138.996 634.172 142.168 637.396 146.328C640.62 150.488 642.232 155.844 642.232 162.396C642.232 168.636 640.62 174.304 637.396 179.4C634.276 184.496 629.7 188.552 623.668 191.568C617.636 194.584 610.512 196.092 602.296 196.092ZM783.605 107.952L760.049 195H730.565L716.837 138.528L702.641 195H673.313L649.601 107.952H676.277L688.601 170.196L703.265 107.952H731.501L746.321 169.884L758.489 107.952H783.605ZM807.193 98.904C802.513 98.904 798.665 97.552 795.649 94.848C792.737 92.04 791.281 88.608 791.281 84.552C791.281 80.392 792.737 76.96 795.649 74.256C798.665 71.448 802.513 70.044 807.193 70.044C811.769 70.044 815.513 71.448 818.425 74.256C821.441 76.96 822.949 80.392 822.949 84.552C822.949 88.608 821.441 92.04 818.425 94.848C815.513 97.552 811.769 98.904 807.193 98.904ZM820.453 107.952V195H793.777V107.952H820.453ZM883.465 130.104H869.113V195H842.437V130.104H832.765V107.952H842.437V105.456C842.437 94.744 845.505 86.632 851.641 81.12C857.777 75.504 866.773 72.696 878.629 72.696C880.605 72.696 882.061 72.748 882.997 72.852V95.472C877.901 95.16 874.313 95.888 872.233 97.656C870.153 99.424 869.113 102.596 869.113 107.172V107.952H883.465V130.104ZM944.516 172.38V195H930.944C921.272 195 913.732 192.66 908.324 187.98C902.916 183.196 900.212 175.448 900.212 164.736V130.104H889.604V107.952H900.212V86.736H926.888V107.952H944.36V130.104H926.888V165.048C926.888 167.648 927.512 169.52 928.76 170.664C930.008 171.808 932.088 172.38 935 172.38H944.516Z" fill="white"/>
<path d="M628.972 315.84C635.316 317.192 640.412 320.364 644.26 325.356C648.108 330.244 650.032 335.86 650.032 342.204C650.032 351.356 646.808 358.636 640.36 364.044C634.016 369.348 625.124 372 613.684 372H562.672V262.488H611.968C623.096 262.488 631.78 265.036 638.02 270.132C644.364 275.228 647.536 282.144 647.536 290.88C647.536 297.328 645.82 302.684 642.388 306.948C639.06 311.212 634.588 314.176 628.972 315.84ZM589.348 306.792H606.82C611.188 306.792 614.516 305.856 616.804 303.984C619.196 302.008 620.392 299.148 620.392 295.404C620.392 291.66 619.196 288.8 616.804 286.824C614.516 284.848 611.188 283.86 606.82 283.86H589.348V306.792ZM609.004 350.472C613.476 350.472 616.908 349.484 619.3 347.508C621.796 345.428 623.044 342.464 623.044 338.616C623.044 334.768 621.744 331.752 619.144 329.568C616.648 327.384 613.164 326.292 608.692 326.292H589.348V350.472H609.004ZM705.128 373.248C696.6 373.248 688.904 371.428 682.04 367.788C675.28 364.148 669.924 358.948 665.972 352.188C662.124 345.428 660.2 337.524 660.2 328.476C660.2 319.532 662.176 311.68 666.128 304.92C670.08 298.056 675.488 292.804 682.352 289.164C689.216 285.524 696.912 283.704 705.44 283.704C713.968 283.704 721.664 285.524 728.528 289.164C735.392 292.804 740.8 298.056 744.752 304.92C748.704 311.68 750.68 319.532 750.68 328.476C750.68 337.42 748.652 345.324 744.596 352.188C740.644 358.948 735.184 364.148 728.216 367.788C721.352 371.428 713.656 373.248 705.128 373.248ZM705.128 350.16C710.224 350.16 714.54 348.288 718.076 344.544C721.716 340.8 723.536 335.444 723.536 328.476C723.536 321.508 721.768 316.152 718.232 312.408C714.8 308.664 710.536 306.792 705.44 306.792C700.24 306.792 695.924 308.664 692.492 312.408C689.06 316.048 687.344 321.404 687.344 328.476C687.344 335.444 689.008 340.8 692.336 344.544C695.768 348.288 700.032 350.16 705.128 350.16ZM804.456 373.248C795.928 373.248 788.232 371.428 781.368 367.788C774.608 364.148 769.252 358.948 765.3 352.188C761.452 345.428 759.528 337.524 759.528 328.476C759.528 319.532 761.504 311.68 765.456 304.92C769.408 298.056 774.816 292.804 781.68 289.164C788.544 285.524 796.24 283.704 804.768 283.704C813.296 283.704 820.992 285.524 827.856 289.164C834.72 292.804 840.128 298.056 844.08 304.92C848.032 311.68 850.008 319.532 850.008 328.476C850.008 337.42 847.98 345.324 843.924 352.188C839.972 358.948 834.512 364.148 827.544 367.788C820.68 371.428 812.984 373.248 804.456 373.248ZM804.456 350.16C809.552 350.16 813.868 348.288 817.404 344.544C821.044 340.8 822.864 335.444 822.864 328.476C822.864 321.508 821.096 316.152 817.56 312.408C814.128 308.664 809.864 306.792 804.768 306.792C799.568 306.792 795.252 308.664 791.82 312.408C788.388 316.048 786.672 321.404 786.672 328.476C786.672 335.444 788.336 340.8 791.664 344.544C795.096 348.288 799.36 350.16 804.456 350.16ZM917.356 372L890.836 335.496V372H864.16V256.56H890.836V320.364L917.2 284.952H950.116L913.924 328.632L950.428 372H917.356ZM974.01 275.904C969.33 275.904 965.482 274.552 962.466 271.848C959.554 269.04 958.098 265.608 958.098 261.552C958.098 257.392 959.554 253.96 962.466 251.256C965.482 248.448 969.33 247.044 974.01 247.044C978.586 247.044 982.33 248.448 985.242 251.256C988.258 253.96 989.766 257.392 989.766 261.552C989.766 265.608 988.258 269.04 985.242 271.848C982.33 274.552 978.586 275.904 974.01 275.904ZM987.27 284.952V372H960.594V284.952H987.27ZM1059.64 284.016C1069.83 284.016 1077.95 287.344 1083.98 294C1090.11 300.552 1093.18 309.6 1093.18 321.144V372H1066.66V324.732C1066.66 318.908 1065.15 314.384 1062.14 311.16C1059.12 307.936 1055.07 306.324 1049.97 306.324C1044.87 306.324 1040.82 307.936 1037.8 311.16C1034.79 314.384 1033.28 318.908 1033.28 324.732V372H1006.6V284.952H1033.28V296.496C1035.98 292.648 1039.62 289.632 1044.2 287.448C1048.77 285.16 1053.92 284.016 1059.64 284.016ZM1144.79 283.704C1150.93 283.704 1156.28 284.952 1160.86 287.448C1165.54 289.944 1169.13 293.22 1171.62 297.276V284.952H1198.3V371.844C1198.3 379.852 1196.69 387.08 1193.46 393.528C1190.34 400.08 1185.51 405.28 1178.95 409.128C1172.51 412.976 1164.45 414.9 1154.77 414.9C1141.88 414.9 1131.43 411.832 1123.42 405.696C1115.41 399.664 1110.83 391.448 1109.69 381.048H1136.05C1136.89 384.376 1138.86 386.976 1141.98 388.848C1145.1 390.824 1148.95 391.812 1153.53 391.812C1159.04 391.812 1163.41 390.2 1166.63 386.976C1169.96 383.856 1171.62 378.812 1171.62 371.844V359.52C1169.02 363.576 1165.43 366.904 1160.86 369.504C1156.28 372 1150.93 373.248 1144.79 373.248C1137.61 373.248 1131.11 371.428 1125.29 367.788C1119.47 364.044 1114.84 358.792 1111.41 352.032C1108.08 345.168 1106.41 337.264 1106.41 328.32C1106.41 319.376 1108.08 311.524 1111.41 304.764C1114.84 298.004 1119.47 292.804 1125.29 289.164C1131.11 285.524 1137.61 283.704 1144.79 283.704ZM1171.62 328.476C1171.62 321.82 1169.75 316.568 1166.01 312.72C1162.37 308.872 1157.89 306.948 1152.59 306.948C1147.29 306.948 1142.76 308.872 1139.02 312.72C1135.38 316.464 1133.56 321.664 1133.56 328.32C1133.56 334.976 1135.38 340.28 1139.02 344.232C1142.76 348.08 1147.29 350.004 1152.59 350.004C1157.89 350.004 1162.37 348.08 1166.01 344.232C1169.75 340.384 1171.62 335.132 1171.62 328.476ZM1253.01 373.248C1245.42 373.248 1238.66 371.948 1232.73 369.348C1226.8 366.748 1222.12 363.212 1218.69 358.74C1215.26 354.164 1213.33 349.068 1212.92 343.452H1239.28C1239.59 346.468 1241 348.912 1243.49 350.784C1245.99 352.656 1249.06 353.592 1252.7 353.592C1256.03 353.592 1258.57 352.968 1260.34 351.72C1262.21 350.368 1263.15 348.652 1263.15 346.572C1263.15 344.076 1261.85 342.256 1259.25 341.112C1256.65 339.864 1252.44 338.512 1246.61 337.056C1240.37 335.6 1235.17 334.092 1231.01 332.532C1226.85 330.868 1223.27 328.32 1220.25 324.888C1217.23 321.352 1215.73 316.62 1215.73 310.692C1215.73 305.7 1217.08 301.176 1219.78 297.12C1222.59 292.96 1226.65 289.684 1231.95 287.292C1237.36 284.9 1243.75 283.704 1251.14 283.704C1262.06 283.704 1270.64 286.408 1276.88 291.816C1283.22 297.224 1286.86 304.4 1287.8 313.344H1263.15C1262.73 310.328 1261.38 307.936 1259.09 306.168C1256.91 304.4 1254 303.516 1250.36 303.516C1247.24 303.516 1244.85 304.14 1243.18 305.388C1241.52 306.532 1240.69 308.144 1240.69 310.224C1240.69 312.72 1241.99 314.592 1244.59 315.84C1247.29 317.088 1251.45 318.336 1257.07 319.584C1263.51 321.248 1268.77 322.912 1272.82 324.576C1276.88 326.136 1280.41 328.736 1283.43 332.376C1286.55 335.912 1288.16 340.696 1288.27 346.728C1288.27 351.824 1286.81 356.4 1283.9 360.456C1281.09 364.408 1276.98 367.528 1271.57 369.816C1266.27 372.104 1260.08 373.248 1253.01 373.248Z" fill="white"/>
</svg>
