<svg width="1278" height="1278" viewBox="0 0 1278 1278" fill="none" xmlns="http://www.w3.org/2000/svg">
<rect width="1278" height="1278" rx="30" fill="#FCFCFC" fill-opacity="0.7"/>
<circle cx="639" cy="639" r="569.088" fill="#878787"/>
<path d="M976.311 326.232C975.389 325.273 974.173 324.634 972.847 324.413C971.52 324.192 970.156 324.4 968.962 325.006L333.338 646.479C332.424 646.92 331.636 647.576 331.045 648.388C330.454 649.2 330.078 650.143 329.951 651.132L323.365 705.302C323.262 706.151 323.344 707.012 323.606 707.828C323.868 708.645 324.303 709.397 324.884 710.037C325.465 710.677 326.177 711.189 326.974 711.54C327.772 711.892 328.636 712.074 329.511 712.075C330.293 712.07 331.068 711.924 331.797 711.644L873.043 501.806C874.311 501.312 875.38 500.429 876.091 499.289L977.106 333.485C977.797 332.355 978.093 331.037 977.949 329.728C977.806 328.419 977.23 327.192 976.311 326.232ZM866.524 491.307L336.961 696.657L341.939 655.753L955.332 345.491L866.524 491.307Z" fill="#FCFCFC"/>
<path d="M831.357 549.766L323.145 735.558C322.078 735.948 321.142 736.617 320.44 737.494C319.738 738.371 319.297 739.42 319.166 740.526L313.324 788.552C313.219 789.402 313.299 790.264 313.56 791.081C313.821 791.899 314.256 792.653 314.837 793.293C315.418 793.933 316.132 794.446 316.931 794.796C317.729 795.146 318.595 795.327 319.471 795.325C319.926 795.326 320.381 795.276 320.825 795.176L758.77 698.695C759.63 698.505 760.439 698.138 761.142 697.618C761.846 697.099 762.428 696.438 762.85 695.681L839.044 558.228C839.644 557.143 839.891 555.904 839.753 554.678C839.614 553.452 839.096 552.296 838.268 551.365C837.439 550.434 836.34 549.773 835.117 549.469C833.895 549.166 832.606 549.235 831.424 549.666L831.357 549.766ZM753.301 687.516L326.616 781.514L330.984 745.611L820.182 566.757L753.301 687.516Z" fill="#FCFCFC"/>
<path d="M712.393 737.644L314.306 815.909C313.026 816.157 311.859 816.795 310.974 817.733C310.088 818.67 309.53 819.858 309.379 821.126L302.86 874.749C302.752 875.598 302.83 876.46 303.089 877.277C303.348 878.095 303.781 878.849 304.361 879.489C304.941 880.13 305.653 880.643 306.452 880.993C307.25 881.344 308.115 881.524 308.99 881.522L632.61 880.959C633.675 880.962 634.722 880.693 635.648 880.179C636.575 879.665 637.348 878.923 637.892 878.028L718.895 746.703C719.518 745.698 719.829 744.537 719.788 743.362C719.747 742.187 719.357 741.049 718.665 740.088C717.973 739.127 717.01 738.383 715.893 737.949C714.776 737.515 713.554 737.409 712.376 737.644H712.393ZM629.122 868.87L315.966 869.4L321.045 826.906L700.964 752.218L629.122 868.87Z" fill="#FCFCFC"/>
</svg>
